<svg id="Layer_2" data-name="Layer 2" xmlns="http://www.w3.org/2000/svg" width="48" height="48" viewBox="0 0 48 48">
  <g id="invisible_box" data-name="invisible box">
    <rect id="Rectángulo_1153" data-name="Rectángulo 1153" width="48" height="48" fill="none"/>
  </g>
  <g id="Q3_icons" data-name="Q3 icons">
    <g id="Grupo_1645" data-name="Grupo 1645">
      <path id="Trazado_774" data-name="Trazado 774" d="M41,4H7A2.9,2.9,0,0,0,4,7V41a2.9,2.9,0,0,0,3,3H41a2.9,2.9,0,0,0,3-3V7a2.9,2.9,0,0,0-3-3ZM40,40H8V8H40Z" fill="#ff7575"/>
      <path id="Trazado_775" data-name="Trazado 775" d="M24,28a2,2,0,0,0,2-2V14a2,2,0,0,0-4,0V26A2,2,0,0,0,24,28Z" fill="#ff7575"/>
      <circle id="Elipse_2" data-name="Elipse 2" cx="2" cy="2" r="2" transform="translate(22 32)" fill="#ff7575"/>
    </g>
  </g>
</svg>
