<svg xmlns="http://www.w3.org/2000/svg" width="22.017" height="17.458" viewBox="0 0 22.017 17.458">
  <path id="id-card-solid" d="M0,34.28H20.517A2.282,2.282,0,0,0,18.238,32H2.28A2.282,2.282,0,0,0,0,34.28Zm0,1.14V45.678a2.282,2.282,0,0,0,2.28,2.28H18.238a2.282,2.282,0,0,0,2.28-2.28V35.42ZM2.28,45.3a1.9,1.9,0,0,1,1.9-1.9H8.357a1.9,1.9,0,0,1,1.9,1.9.382.382,0,0,1-.381.381H2.661A.382.382,0,0,1,2.28,45.3Zm3.989-7.6a2.28,2.28,0,1,1-2.28,2.28A2.28,2.28,0,0,1,6.269,37.7Zm6.269.57a.572.572,0,0,1,.57-.57h4.559a.57.57,0,0,1,0,1.14H13.108A.572.572,0,0,1,12.538,38.269Zm0,2.28a.572.572,0,0,1,.57-.57h4.559a.57.57,0,0,1,0,1.14H13.108A.572.572,0,0,1,12.538,40.549Zm0,2.28a.572.572,0,0,1,.57-.57h4.559a.57.57,0,0,1,0,1.14H13.108A.572.572,0,0,1,12.538,42.829Z" transform="translate(0.75 -31.25)" fill="none" stroke="#000" stroke-width="1.5"/>
</svg>
