<svg xmlns="http://www.w3.org/2000/svg" width="18.238" height="15.958" viewBox="0 0 18.238 15.958">
  <path id="image-regular" d="M15.958,33.71a.572.572,0,0,1,.57.57V45.671l-.178-.232L11.505,39.17a.857.857,0,0,0-1.354,0L7.2,43,6.109,41.475a.853.853,0,0,0-1.389,0L1.87,45.468l-.16.221V34.28a.572.572,0,0,1,.57-.57ZM2.28,32A2.282,2.282,0,0,0,0,34.28v11.4a2.282,2.282,0,0,0,2.28,2.28H15.958a2.282,2.282,0,0,0,2.28-2.28V34.28A2.282,2.282,0,0,0,15.958,32Zm2.85,6.839a1.71,1.71,0,1,0-1.71-1.71A1.71,1.71,0,0,0,5.129,38.839Z" transform="translate(0 -32)"/>
</svg>
