<?xml version="1.0" encoding="UTF-8"?>
<svg id="Capa_1" xmlns="http://www.w3.org/2000/svg" viewBox="0 0 442.67 208">
  <defs>
    <style>
      .cls-1 {
        fill: #fff;
      }
    </style>
  </defs>
  <path class="cls-1" d="M222.78,130.26h-15.88c-.96,0-1.74-.78-1.74-1.74v-41.44c0-.96.78-1.74,1.74-1.74h15.88c4.51,0,8.23.41,11.16,1.22,2.92.82,5.19,2.16,6.81,4.03,1.62,1.87,2.73,4.07,3.35,6.61.62,2.53.92,5.83.92,9.88s-.28,7.41-.85,10.07c-.57,2.67-1.63,5.04-3.19,7.13-1.56,2.09-3.83,3.61-6.81,4.56-2.98.95-6.77,1.42-11.39,1.42ZM233.93,112.43c.1-1.41.15-3.36.15-5.85s-.1-4.48-.31-5.98c-.21-1.5-.69-2.86-1.46-4.1-.77-1.23-1.91-2.08-3.42-2.54-1.51-.46-3.55-.69-6.12-.69h-7v29.07h7c3.85,0,6.64-.84,8.39-2.51,1.49-1.36,2.41-3.83,2.77-7.4ZM267.57,130.26h-15.88c-.96,0-1.74-.78-1.74-1.74v-41.44c0-.96.78-1.74,1.74-1.74h15.88c4.51,0,8.23.41,11.16,1.22,2.92.82,5.19,2.16,6.81,4.03,1.62,1.87,2.73,4.07,3.35,6.61.62,2.53.92,5.83.92,9.88s-.28,7.41-.85,10.07c-.57,2.67-1.63,5.04-3.19,7.13-1.56,2.09-3.83,3.61-6.81,4.56-2.98.95-6.77,1.42-11.39,1.42ZM278.72,112.43c.1-1.41.15-3.36.15-5.85s-.1-4.48-.31-5.98c-.21-1.5-.69-2.86-1.46-4.1-.77-1.23-1.91-2.08-3.42-2.54-1.51-.46-3.55-.69-6.12-.69h-7v29.07h7c3.85,0,6.64-.84,8.39-2.51,1.49-1.36,2.41-3.83,2.77-7.4ZM329.82,128.63c.02.52-.36.98-.88,1.07-5.08.9-9.67,1.35-13.79,1.35-4.36,0-7.85-.46-10.46-1.39-2.61-.93-4.67-2.4-6.15-4.43-1.49-2.03-2.51-4.4-3.08-7.13-.57-2.73-.85-6.17-.85-10.31,0-8.68,1.42-14.72,4.27-18.13,2.85-3.41,8.09-5.12,15.73-5.12,4.18,0,8.99.53,14.42,1.6.51.1.88.56.86,1.08l-.22,5.23c-.03.61-.58,1.07-1.19.99-4.57-.56-8.41-.85-11.52-.85-3.36,0-5.76.39-7.19,1.16-1.44.77-2.5,2.24-3.19,4.39-.69,2.16-1.04,5.84-1.04,11.03s.7,8.8,2.12,10.8c1.41,2,4.23,3.01,8.46,3.01,3.89,0,8.01-.26,12.36-.78.61-.07,1.16.39,1.18,1l.17,5.41ZM188.03,108.66c.05-.51-.12-1-.47-1.39-.35-.38-.84-.6-1.35-.6h-90.13c-.38,0-.73.15-.99.43-.26.28-.39.65-.36,1.04.15,2,.43,4,.82,5.96.29,1.45,1.59,2.5,3.1,2.5h85.96c1.15,0,2.14-.78,2.41-1.89.48-1.98.82-4.02,1.01-6.06ZM110.4,130.14c.32.44.85.7,1.41.7h74.09c1.38,0,2.65-.74,3.33-1.94,1.24-2.19,2.32-4.49,3.22-6.86.1-.27.07-.57-.09-.8-.16-.23-.41-.36-.69-.36h-85.15c-.31,0-.58.15-.74.4-.17.26-.19.57-.06.85,1.27,2.82,2.84,5.52,4.68,8ZM144.48,147.74c11.04.15,21.6-3.87,29.73-11.32.23-.21.3-.52.19-.82-.09-.24-.33-.49-.72-.49h-57.1c-.33,0-.59.18-.71.48-.09.24-.09.59.2.86,7.81,7.14,17.9,11.15,28.4,11.3ZM172.15,70.99c-4.4-3.54-10.36-4.79-15.95-3.34-7.22,1.88-15,1.88-22.22,0-1.54-.4-3.1-.6-4.65-.6-4.1,0-8.11,1.36-11.3,3.93-9.19,7.41-15,18.39-15.94,30.12-.03.34.09.67.32.92.22.24.53.38.86.38h83.65c.33,0,.64-.13.86-.38.23-.25.34-.58.32-.92-.94-11.73-6.75-22.71-15.95-30.12ZM335.86,125c.21-.48.5-.9.86-1.25.36-.35.79-.63,1.27-.83.48-.2,1-.3,1.54-.3s1.06.1,1.54.3.9.48,1.26.83c.36.35.65.77.86,1.25.21.48.32,1,.32,1.56s-.11,1.1-.32,1.59c-.21.48-.5.91-.86,1.26-.36.36-.78.63-1.26.83s-.99.3-1.54.3-1.06-.1-1.54-.3c-.49-.2-.91-.47-1.27-.83-.36-.36-.65-.78-.86-1.26-.21-.49-.32-1.01-.32-1.59s.11-1.08.32-1.56ZM336.51,127.91c.17.41.4.77.69,1.08.29.3.64.54,1.04.72.4.17.83.26,1.3.26s.89-.09,1.29-.26c.4-.17.74-.41,1.03-.72.29-.3.52-.66.69-1.08s.25-.87.25-1.35-.08-.92-.25-1.33c-.17-.41-.4-.77-.69-1.07-.29-.3-.64-.54-1.03-.71-.4-.17-.82-.26-1.29-.26s-.9.09-1.3.26c-.4.17-.75.41-1.04.71-.29.3-.52.66-.69,1.07s-.25.85-.25,1.33.08.94.25,1.35ZM339.78,124.26c.55,0,.96.11,1.23.33.27.22.4.55.4,1,0,.42-.12.72-.35.92s-.53.31-.87.34l1.33,2.05h-.77l-1.26-1.99h-.76v1.99h-.72v-4.64h1.79ZM339.46,126.31c.16,0,.32,0,.46-.02.14-.01.27-.04.39-.09s.2-.13.27-.23c.07-.1.1-.25.1-.43,0-.15-.03-.28-.09-.37s-.14-.16-.23-.21c-.09-.05-.2-.08-.33-.1-.12-.02-.25-.03-.37-.03h-.95v1.47h.75ZM252.7,146.31h-2.86v-8.51h2.86c.73,0,1.34.08,1.81.23.48.15.84.41,1.11.76.26.35.44.77.55,1.25.1.48.15,1.1.15,1.87s-.05,1.4-.14,1.91c-.09.5-.26.96-.52,1.35-.26.4-.62.68-1.11.86-.49.18-1.1.27-1.85.27ZM254.51,142.93c.02-.27.03-.64.03-1.11s-.02-.85-.05-1.13c-.03-.28-.11-.54-.24-.78s-.31-.39-.56-.48-.58-.13-1-.13h-1.14v5.5h1.14c.63,0,1.08-.16,1.36-.47.24-.26.39-.73.45-1.4ZM262.33,142.01v2.6c.02.2.05.34.1.42.05.08.15.14.31.17l-.05,1.26c-.43,0-.77-.03-1.02-.09-.25-.06-.51-.18-.77-.35-.6.29-1.21.44-1.84.44-1.29,0-1.94-.68-1.94-2.05,0-.67.18-1.14.54-1.42.36-.28.91-.44,1.65-.49l1.34-.1v-.39c0-.26-.06-.44-.18-.53s-.3-.14-.56-.14l-2.35.1-.05-1.16c.89-.24,1.74-.36,2.55-.36s1.38.17,1.74.5c.35.33.53.87.53,1.6ZM259.52,143.66c-.47.04-.7.29-.7.75s.2.69.61.69c.32,0,.66-.05,1.04-.15l.19-.05v-1.34l-1.14.1ZM263.14,140.05h1.75l1,4.83h.35l1.05-4.83h1.7l-1.5,6.26h-2.85l-1.5-6.26ZM269.84,139.25v-1.7h1.68v1.7h-1.68ZM269.84,146.31v-6.26h1.68v6.26h-1.68ZM278.26,137.55v8.76h-1.66v-.26c-.58.28-1.09.41-1.51.41-.91,0-1.54-.26-1.9-.79-.36-.53-.54-1.36-.54-2.5s.21-1.97.64-2.49c.43-.52,1.08-.78,1.95-.78.27,0,.64.04,1.11.13l.24.05v-2.53h1.68ZM276.41,144.81l.18-.04v-3.29c-.46-.08-.87-.13-1.23-.13-.68,0-1.01.6-1.01,1.8,0,.65.07,1.11.22,1.39.15.28.4.41.75.41s.71-.05,1.09-.15ZM285.33,146.31h-2.86v-8.51h2.86c.73,0,1.34.08,1.81.23.48.15.84.41,1.11.76.26.35.44.77.55,1.25s.15,1.1.15,1.87-.05,1.4-.14,1.91c-.09.5-.26.96-.52,1.35-.26.4-.62.68-1.11.86-.49.18-1.1.27-1.85.27ZM287.14,142.93c.02-.27.03-.64.03-1.11s-.02-.85-.05-1.13c-.03-.28-.11-.54-.24-.78s-.31-.39-.56-.48-.58-.13-1-.13h-1.14v5.5h1.14c.63,0,1.08-.16,1.36-.47.24-.26.39-.73.45-1.4ZM291.85,144.73c.2.17.48.26.85.26.77,0,1.47-.02,2.08-.07l.35-.04.02,1.24c-.96.23-1.83.35-2.6.35-.94,0-1.63-.25-2.05-.75s-.64-1.31-.64-2.44c0-2.24.92-3.37,2.76-3.37s2.73.94,2.73,2.83l-.12,1.16h-3.68c0,.38.11.66.31.83ZM293.7,142.62c0-.5-.08-.85-.24-1.04s-.44-.29-.83-.29-.68.1-.84.31c-.16.21-.25.55-.26,1.03h2.17ZM296.5,146.31v-8.76h1.68v8.76h-1.68ZM307.85,146.17c-.88.19-1.68.29-2.39.29s-1.28-.09-1.7-.26c-.42-.18-.76-.45-1-.84-.24-.38-.41-.83-.5-1.35s-.14-1.17-.14-1.95c0-1.64.23-2.79.69-3.43.46-.65,1.32-.97,2.56-.97.72,0,1.55.11,2.49.34l-.05,1.38c-.83-.12-1.51-.19-2.06-.19s-.94.07-1.17.22-.41.42-.52.83c-.11.41-.17,1.11-.17,2.09s.11,1.67.34,2.05c.23.38.69.57,1.37.57s1.42-.06,2.2-.18l.04,1.41ZM312.59,140.05h1.68v6.26h-1.66v-.35c-.6.33-1.12.5-1.56.5-.87,0-1.45-.24-1.75-.72-.3-.48-.45-1.28-.45-2.41v-3.28h1.68v3.3c0,.62.05,1.04.15,1.26s.34.34.73.34.71-.06,1.04-.18l.16-.05v-4.68ZM315.69,146.31v-6.26h1.66v.66c.7-.42,1.37-.69,2-.81v1.69c-.68.14-1.26.29-1.74.44l-.25.09v4.19h-1.68ZM323.69,141.48h-1.54v2.56c0,.25,0,.43.02.53.01.1.06.19.14.27.08.08.2.11.37.11l.95-.03.07,1.34c-.56.12-.98.19-1.28.19-.75,0-1.26-.17-1.54-.51-.28-.34-.41-.96-.41-1.87v-2.6h-.74v-1.43h.74v-1.74h1.68v1.74h1.54v1.43ZM324.99,140.76c.44-.57,1.18-.86,2.21-.86s1.77.29,2.22.86c.44.57.66,1.37.66,2.41,0,2.19-.96,3.29-2.88,3.29s-2.88-1.1-2.88-3.29c0-1.03.22-1.84.66-2.41ZM326.28,144.58c.17.3.48.45.92.45s.75-.15.92-.45c.17-.3.26-.77.26-1.41s-.09-1.11-.26-1.4c-.17-.29-.48-.44-.92-.44s-.75.15-.92.44c-.17.29-.26.76-.26,1.4s.09,1.11.26,1.41Z"/>
</svg>