<svg xmlns="http://www.w3.org/2000/svg" width="18.13" height="18.13" viewBox="0 0 18.13 18.13">
  <g id="Grupo_1644" data-name="Grupo 1644" transform="translate(0 0)">
    <path id="Trazado_770" data-name="Trazado 770" d="M11.065,3.648a7.417,7.417,0,1,1-7.417,7.417,7.417,7.417,0,0,1,7.417-7.417m0-1.648a9.024,9.024,0,1,0,6.422,2.643A9.065,9.065,0,0,0,11.065,2Z" transform="translate(-2 -2)" fill="#fff"/>
    <path id="Trazado_771" data-name="Trazado 771" d="M19.863,18.684l2.307-2.266a.865.865,0,0,0,.082-1.113.783.783,0,0,0-1.236-.082l-2.307,2.307L16.4,15.223a.783.783,0,0,0-1.236.082.865.865,0,0,0,.082,1.113l2.307,2.266-2.307,2.266a.865.865,0,0,0-.082,1.113.783.783,0,0,0,1.236.082l2.307-2.307,2.307,2.307a.783.783,0,0,0,1.236-.082.865.865,0,0,0-.082-1.113Z" transform="translate(-9.644 -9.619)" fill="#fff"/>
  </g>
</svg>
