<svg xmlns="http://www.w3.org/2000/svg" width="53.561" height="17.667" viewBox="0 0 53.561 17.667">
  <g id="Grupo_915" data-name="Grupo 915" transform="translate(-1188.54 -221.25)">
    <path id="signature-solid" d="M7.25,35.625a1.208,1.208,0,1,1,2.417,0v.295A18.3,18.3,0,0,1,9.4,39.035l-3.187.955a3.627,3.627,0,0,0-2.583,3.474v2.715a2.737,2.737,0,0,0,5.113,1.359l.525-.918a20.629,20.629,0,0,0,2.205-5.683l3.565-1.069-.472,1.416a1.2,1.2,0,0,0,.166,1.087,1.215,1.215,0,0,0,.982.5h4.833a1.208,1.208,0,0,0,0-2.417H17.389l.68-2.035a1.21,1.21,0,0,0-1.5-1.541l-4.626,1.39a20.377,20.377,0,0,0,.136-2.352v-.295a3.625,3.625,0,1,0-7.25,0v1.208a1.208,1.208,0,1,0,2.417,0ZM6.9,42.309l1.85-.555a18.163,18.163,0,0,1-1.59,3.67l-.525.918a.321.321,0,0,1-.6-.159V43.468A1.215,1.215,0,0,1,6.9,42.309Zm-6,2.379a.906.906,0,0,0,0,1.812H2.428c-.008-.106-.011-.211-.011-.321V44.687ZM23.26,46.5a.906.906,0,0,0,0-1.812H11.551c-.253.615-.536,1.22-.842,1.812Z" transform="translate(1188.54 190)" fill="#003da5"/>
    <path id="id-card-solid" d="M0,34.28H20.517A2.282,2.282,0,0,0,18.238,32H2.28A2.282,2.282,0,0,0,0,34.28Zm0,1.14V45.678a2.282,2.282,0,0,0,2.28,2.28H18.238a2.282,2.282,0,0,0,2.28-2.28V35.42ZM2.28,45.3a1.9,1.9,0,0,1,1.9-1.9H8.357a1.9,1.9,0,0,1,1.9,1.9.382.382,0,0,1-.381.381H2.661A.382.382,0,0,1,2.28,45.3Zm3.989-7.6a2.28,2.28,0,1,1-2.28,2.28A2.28,2.28,0,0,1,6.269,37.7Zm6.269.57a.572.572,0,0,1,.57-.57h4.559a.57.57,0,0,1,0,1.14H13.108A.572.572,0,0,1,12.538,38.269Zm0,2.28a.572.572,0,0,1,.57-.57h4.559a.57.57,0,0,1,0,1.14H13.108A.572.572,0,0,1,12.538,40.549Zm0,2.28a.572.572,0,0,1,.57-.57h4.559a.57.57,0,0,1,0,1.14H13.108A.572.572,0,0,1,12.538,42.829Z" transform="translate(1220.833 190)" fill="none" stroke="#003da5" stroke-width="1.5"/>
  </g>
</svg>
