<svg xmlns="http://www.w3.org/2000/svg" width="24.167" height="16.917" viewBox="0 0 24.167 16.917">
  <path id="signature-solid" d="M7.25,35.625a1.208,1.208,0,1,1,2.417,0v.295A18.3,18.3,0,0,1,9.4,39.035l-3.187.955a3.627,3.627,0,0,0-2.583,3.474v2.715a2.737,2.737,0,0,0,5.113,1.359l.525-.918a20.629,20.629,0,0,0,2.205-5.683l3.565-1.069-.472,1.416a1.2,1.2,0,0,0,.166,1.087,1.215,1.215,0,0,0,.982.5h4.833a1.208,1.208,0,0,0,0-2.417H17.389l.68-2.035a1.21,1.21,0,0,0-1.5-1.541l-4.626,1.39a20.377,20.377,0,0,0,.136-2.352v-.295a3.625,3.625,0,1,0-7.25,0v1.208a1.208,1.208,0,1,0,2.417,0ZM6.9,42.309l1.85-.555a18.163,18.163,0,0,1-1.59,3.67l-.525.918a.321.321,0,0,1-.6-.159V43.468A1.215,1.215,0,0,1,6.9,42.309Zm-6,2.379a.906.906,0,0,0,0,1.812H2.428c-.008-.106-.011-.211-.011-.321V44.687ZM23.26,46.5a.906.906,0,0,0,0-1.812H11.551c-.253.615-.536,1.22-.842,1.812Z" transform="translate(0 -32)"/>
</svg>
